<?xml version="1.0" encoding="iso-8859-1"?>
<!-- Generator: Adobe Illustrator 19.0.0, SVG Export Plug-In . SVG Version: 6.00 Build 0)  -->
<svg version="1.1" id="Layer_1" xmlns="http://www.w3.org/2000/svg" xmlns:xlink="http://www.w3.org/1999/xlink" x="0px" y="0px"
	 viewBox="0 0 503.646 503.646" style="enable-background:new 0 0 503.646 503.646;" xml:space="preserve">
<g transform="translate(1 1)">
	<g>
		<g>
			<path d="M494.253,36.79h-41.967c-15.57,0-28.752,10.742-32.504,25.18h-35.483c-21.823,0-46.164,4.197-71.344,29.377
				l-27.873,27.873c-13.521-3.121-27.671-0.027-37.596,9.898l-19.305,19.305c-3.357,3.357-3.357,8.393,0,11.751l75.541,75.541
				c1.679,1.679,3.357,2.518,5.875,2.518s4.197-0.839,6.715-2.518l19.305-19.305c7.554-7.554,11.751-18.466,10.911-30.216
				c-0.237-3.086-0.822-6.17-1.712-9.2l26.892-26.892c5.036-4.197,5.036-4.197,12.59-4.197h35.483
				c3.752,14.439,16.934,25.18,32.504,25.18h41.967c5.036,0,8.393-3.357,8.393-8.393V45.184
				C502.646,40.148,499.289,36.79,494.253,36.79z M323.027,204.659l-13.43,13.43l-63.79-63.79l12.59-13.43
				c5.654-6.168,14.142-7.922,22.378-5.854c0.834,0.742,1.817,1.329,2.802,1.658c5.036,1.679,8.393,4.197,11.751,7.554
				l24.341,24.341c3.357,2.518,5.875,6.715,7.554,10.911c0.224,0.671,0.573,1.277,1.003,1.829c0.442,1.842,0.676,3.754,0.676,5.725
				C329.741,193.748,327.223,200.462,323.027,204.659z M361.636,138.351l-23.991,23.991c-1.601-2.24-3.396-4.375-5.386-6.365
				l-24.341-24.341c-2.052-1.954-4.232-3.694-6.502-5.234l24.968-23.303c20.144-20.144,37.771-24.341,59.593-24.341h32.734v50.361
				h-32.734C373.387,129.118,370.03,129.958,361.636,138.351z M485.859,154.299h-33.574c-9.233,0-16.787-7.554-16.787-16.787V70.364
				c0-9.233,7.554-16.787,16.787-16.787h33.574V154.299z"/>
			<path d="M240.771,208.017l-5.875,5.875c-3.357,3.357-3.357,8.393,0,11.751c1.679,1.679,3.357,2.518,5.875,2.518
				c2.518,0,4.197-0.839,5.875-2.518l5.875-5.875c3.357-3.357,3.357-8.393,0-11.751
				C249.164,204.659,244.128,204.659,240.771,208.017z"/>
			<path d="M180.338,269.289L169.427,280.2c-3.357,3.357-3.357,8.393,0,11.751c1.679,1.679,3.357,2.518,5.875,2.518
				c2.518,0,4.197-0.839,5.875-2.518l10.911-10.911c3.357-3.357,3.357-8.393,0-11.751
				C188.732,265.931,183.695,265.931,180.338,269.289z"/>
			<path d="M224.823,236.554c-3.357-3.357-8.393-3.357-11.751,0l-10.911,10.911c-3.357,3.357-3.357,8.393,0,11.751
				c1.679,1.679,3.357,2.518,5.875,2.518c2.518,0,4.197-0.839,5.875-2.518l10.911-10.911
				C228.181,244.948,228.181,239.912,224.823,236.554z"/>
			<path d="M93.886,369.171c-3.357-3.357-8.393-3.357-11.751,0l-10.911,10.911c-3.357,3.357-3.357,8.393,0,11.751
				c1.679,1.679,3.357,2.518,5.875,2.518c2.518,0,4.197-0.839,5.875-2.518l10.911-10.911
				C97.243,377.564,97.243,372.528,93.886,369.171z"/>
			<path d="M114.869,336.436l-10.911,10.911c-3.357,3.357-3.357,8.393,0,11.751c1.679,1.679,3.357,2.518,5.875,2.518
				c2.518,0,4.197-0.839,5.875-2.518l10.911-10.911c3.357-3.357,3.357-8.393,0-11.751
				C123.263,333.079,118.227,333.079,114.869,336.436z"/>
			<path d="M148.443,325.525l10.911-10.911c3.357-3.357,3.357-8.393,0-11.751c-3.357-3.357-8.393-3.357-11.751,0l-10.911,10.911
				c-3.357,3.357-3.357,8.393,0,11.751c1.679,1.679,3.357,2.518,5.875,2.518C145.086,328.043,146.764,327.203,148.443,325.525z"/>
			<path d="M49.4,402.744l-5.875,5.875c-3.357,3.357-3.357,8.393,0,11.751c1.679,1.679,3.357,2.518,5.875,2.518
				c2.518,0,4.197-0.839,5.875-2.518l5.875-5.875c3.357-3.357,3.357-8.393,0-11.751C57.794,399.387,52.758,399.387,49.4,402.744z"/>
			<path d="M293.65,240.751c-3.357-2.518-9.233-1.679-11.751,1.679l-5.036,6.715c-2.518,3.357-1.679,9.233,1.679,11.751
				c1.679,0.839,3.357,1.679,5.036,1.679c2.518,0,5.036-0.839,6.715-3.357l5.036-6.715
				C297.846,249.144,297.007,243.269,293.65,240.751z"/>
			<path d="M245.807,304.541c-3.357-2.518-9.233-1.679-11.751,1.679l-8.393,11.751c-2.518,3.357-1.679,9.233,1.679,11.751
				c1.679,0.839,3.357,1.679,5.036,1.679c2.518,0,5.036-0.839,6.715-3.357l8.393-11.751
				C250.004,312.935,249.164,307.059,245.807,304.541z"/>
			<path d="M271.827,270.128c-3.357-2.518-9.233-1.679-11.751,1.679l-8.393,11.751c-2.518,3.357-1.679,9.233,1.679,11.751
				c1.679,0.839,3.357,1.679,5.036,1.679c2.518,0,5.036-0.839,6.715-3.357l8.393-11.751
				C276.023,278.522,275.184,272.646,271.827,270.128z"/>
			<path d="M194.607,373.367c-3.357-2.518-9.233-1.679-11.751,1.679l-8.393,11.751c-2.518,3.357-1.679,9.233,1.679,11.751
				c1.679,0.839,3.357,1.679,5.036,1.679c2.518,0,5.036-0.839,6.715-3.357l8.393-11.751
				C198.804,381.761,197.964,375.885,194.607,373.367z"/>
			<path d="M168.587,408.62c-3.357-2.518-9.233-1.679-11.751,1.679l-8.393,11.751c-2.518,3.357-1.679,9.233,1.679,11.751
				c1.679,0.839,3.357,1.679,5.036,1.679c2.518,0,5.036-1.679,6.715-3.357l8.393-11.751
				C172.784,417.013,171.945,411.138,168.587,408.62z"/>
			<path d="M219.787,338.954c-3.357-2.518-9.233-1.679-11.751,1.679l-8.393,11.751c-2.518,3.357-1.679,9.233,1.679,11.751
				c1.679,0.839,3.357,1.679,5.036,1.679c3.357,0,5.875-0.839,6.715-3.357l8.393-11.751
				C223.984,347.348,223.145,341.472,219.787,338.954z"/>
			<path d="M143.407,443.033c-3.357-2.518-9.233-1.679-11.751,1.679l-5.036,6.715c-2.518,3.357-1.679,9.233,1.679,11.751
				c1.679,0.839,3.357,1.679,5.036,1.679c2.518,0,5.036-0.839,6.715-3.357l5.036-6.715
				C147.604,451.426,146.764,445.551,143.407,443.033z"/>
			<path d="M206.358,193.748c1.679,0,3.357-0.839,5.036-1.679l6.715-5.036c4.197-2.518,4.197-8.393,1.679-11.751
				c-2.518-4.197-8.393-4.197-11.751-1.679l-6.715,5.036c-4.197,2.518-4.197,8.393-1.679,11.751
				C201.322,192.908,203.84,193.748,206.358,193.748z"/>
			<path d="M138.371,245.787c1.679,0,4.197,0,5.036-1.679l10.911-8.393c4.197-2.518,4.197-8.393,1.679-11.751
				c-2.518-4.197-8.393-4.197-11.751-1.679l-10.911,8.393c-4.197,2.518-4.197,8.393-1.679,11.751
				C133.335,244.948,135.853,245.787,138.371,245.787z"/>
			<path d="M172.784,219.767c1.679,0,3.357,0,5.036-1.679l10.911-8.393c4.197-2.518,4.197-8.393,1.679-11.751
				c-2.518-4.197-8.393-4.197-11.751-1.679l-10.911,8.393c-4.197,2.518-4.197,8.393-1.679,11.751
				C167.748,218.928,170.266,219.767,172.784,219.767z"/>
			<path d="M36.81,324.685c1.679,0,3.357-0.839,5.036-1.679l10.911-8.393c4.197-2.518,4.197-8.393,1.679-11.751
				c-2.518-4.197-8.393-4.197-11.751-1.679l-10.911,8.393c-4.197,2.518-4.197,8.393-1.679,11.751
				C31.774,323.846,34.292,324.685,36.81,324.685z"/>
			<path d="M70.384,298.666c2.518,0,4.197-0.839,5.036-1.679l10.911-8.393c4.197-2.518,4.197-8.393,1.679-11.751
				c-2.518-4.197-8.393-4.197-11.751-1.679l-10.911,8.393c-4.197,2.518-4.197,8.393-1.679,11.751
				C65.348,297.826,67.866,298.666,70.384,298.666z"/>
			<path d="M104.797,272.646c1.679,0,3.357-0.839,5.036-1.679l10.911-8.393c4.197-2.518,4.197-8.393,1.679-11.751
				c-2.518-4.197-8.393-4.197-11.751-1.679l-10.911,8.393c-4.197,2.518-4.197,8.393-1.679,11.751
				C99.761,271.807,102.279,272.646,104.797,272.646z"/>
			<path d="M20.863,328.882c-2.518-4.197-8.393-4.197-11.751-1.679l-6.715,5.036c-4.197,2.518-4.197,8.393-1.679,11.751
				c1.679,2.518,4.197,3.357,6.715,3.357c1.679,0,3.357-0.839,5.036-1.679l6.715-5.036C23.381,338.115,23.381,332.24,20.863,328.882
				z"/>
			<path d="M253.361,244.108c1.679,0.839,3.357,1.679,5.036,1.679c2.518,0,4.197-1.679,6.715-2.518l5.036-6.715
				c3.357-3.357,2.518-8.393-0.839-11.751c-3.357-3.357-8.393-2.518-11.751,0.839l-5.036,6.715
				C249.164,235.715,250.004,240.751,253.361,244.108z"/>
			<path d="M201.322,314.613c2.518,0,5.036-0.839,6.715-2.518l9.233-11.751c3.357-3.357,2.518-8.393-0.839-11.751
				c-3.357-3.357-8.393-2.518-11.751,0.839l-9.233,11.751c-3.357,3.357-2.518,8.393,0.839,11.751
				C197.964,313.774,199.643,314.613,201.322,314.613z"/>
			<path d="M229.859,280.2c2.518,0,5.036-0.839,6.715-2.518l9.233-11.751c3.357-3.357,2.518-8.393-0.839-11.751
				s-8.393-2.518-11.751,0.839l-9.233,11.751c-3.357,3.357-2.518,8.393,0.839,11.751C226.502,279.361,228.181,280.2,229.859,280.2z"
				/>
			<path d="M188.732,334.758c3.357-3.357,2.518-8.393-0.839-11.751c-3.357-3.357-8.393-2.518-11.751,0.839l-9.233,11.751
				c-3.357,3.357-2.518,8.393,0.839,11.751c1.679,0.839,3.357,1.679,5.036,1.679c2.518,0,5.036-0.839,6.715-2.518L188.732,334.758z"
				/>
			<path d="M130.817,392.672c-3.357-3.357-8.393-2.518-11.751,0.839l-9.233,11.751c-3.357,3.357-2.518,8.393,0.839,11.751
				c1.679,0.839,3.357,1.679,5.036,1.679c2.518,0,5.036-0.839,6.715-2.518l9.233-11.751
				C135.014,401.066,134.174,396.03,130.817,392.672z"/>
			<path d="M144.246,384.279c2.518,0,5.036-1.679,6.715-3.357l9.233-10.911c3.357-3.357,2.518-8.393-0.839-11.751
				c-3.357-3.357-8.393-2.518-11.751,0.839l-9.233,11.751c-3.357,3.357-2.518,8.393,0.839,11.751
				C140.889,383.44,142.568,384.279,144.246,384.279z"/>
			<path d="M90.528,427.925l-5.036,6.715c-3.357,3.357-2.518,8.393,0.839,11.751c1.679,0.839,3.357,1.679,5.036,1.679
				c2.518,0,5.036-0.839,6.715-2.518l5.036-6.715c3.357-3.357,2.518-8.393-0.839-11.751
				C98.922,423.728,93.886,424.567,90.528,427.925z"/>
			<path d="M224.823,191.23l-5.875,5.875c-3.357,3.357-4.197,8.393-0.839,11.751c1.679,1.679,3.357,2.518,5.875,2.518
				c1.679,0,3.357-0.839,5.875-1.679l5.875-5.875c3.357-3.357,4.197-8.393,0.839-11.751S228.181,187.872,224.823,191.23z"/>
			<path d="M149.282,269.289c1.679,1.679,3.357,2.518,5.875,2.518s4.197-0.839,5.875-1.679l11.751-10.072
				c3.357-3.357,4.197-8.393,0.839-11.751c-3.357-3.357-8.393-4.197-11.751-0.839l-11.751,10.072
				C146.764,260.895,145.925,265.931,149.282,269.289z"/>
			<path d="M183.696,239.072c1.679,1.679,3.357,2.518,5.875,2.518c1.679,0,4.197-0.839,5.875-1.679l11.751-10.072
				c3.357-3.357,4.197-8.393,0.839-11.751s-8.393-4.197-11.751-0.839l-11.751,10.072
				C181.177,230.679,180.338,235.715,183.696,239.072z"/>
			<path d="M47.722,360.777c1.679,1.679,3.357,2.518,5.875,2.518c1.679,0,3.357-0.839,4.197-1.679l11.751-10.072
				c3.357-3.357,4.197-8.393,0.839-11.751c-3.357-3.357-8.393-4.197-11.751-0.839l-10.072,10.072
				C45.204,352.384,44.364,357.42,47.722,360.777z"/>
			<path d="M115.709,300.344c1.679,1.679,3.357,2.518,5.875,2.518c1.679,0,4.197-0.839,5.875-1.679l11.751-10.072
				c3.357-3.357,4.197-8.393,0.839-11.751c-3.357-3.357-8.393-4.197-11.751-0.839l-11.751,10.072
				C113.191,291.951,112.351,296.987,115.709,300.344z"/>
			<path d="M81.295,330.561c1.679,1.679,3.357,2.518,5.875,2.518c2.518,0,4.197-0.839,5.875-2.518l11.751-9.233
				c3.357-3.357,4.197-8.393,0.839-11.751s-8.393-4.197-11.751-0.839L82.135,318.81C78.777,322.167,77.938,327.203,81.295,330.561z"
				/>
			<path d="M25.059,369.171l-5.875,5.875c-3.357,3.357-4.197,8.393-0.839,11.751c1.679,1.679,3.357,2.518,5.875,2.518
				c1.679,0,4.197-0.839,5.875-1.679l5.875-5.875c3.357-3.357,4.197-8.393,0.839-11.751
				C33.453,366.653,28.417,365.813,25.059,369.171z"/>
		</g>
	</g>
</g>
<g>
</g>
<g>
</g>
<g>
</g>
<g>
</g>
<g>
</g>
<g>
</g>
<g>
</g>
<g>
</g>
<g>
</g>
<g>
</g>
<g>
</g>
<g>
</g>
<g>
</g>
<g>
</g>
<g>
</g>
</svg>
